<svg width="32" height="33" viewBox="0 0 32 33" fill="none" xmlns="http://www.w3.org/2000/svg">
<path d="M11.5625 16.0106C12.5915 18.1356 14.3098 19.8495 16.4375 20.8731C16.5944 20.9474 16.768 20.9795 16.9412 20.9664C17.1143 20.9532 17.2811 20.8952 17.425 20.7981L20.55 18.7106C20.6881 18.6169 20.8476 18.5598 21.0137 18.5445C21.1799 18.5292 21.3472 18.5562 21.5 18.6231L27.35 21.1356C27.5499 21.2188 27.717 21.3654 27.8254 21.5529C27.9338 21.7404 27.9776 21.9583 27.95 22.1731C27.7646 23.6202 27.0582 24.9503 25.9631 25.9143C24.8679 26.8783 23.459 27.4102 22 27.4106C17.4913 27.4106 13.1673 25.6195 9.97919 22.4314C6.79107 19.2433 5 14.9192 5 10.4106C5.00033 8.95156 5.53227 7.54267 6.49628 6.44751C7.4603 5.35235 8.79033 4.64598 10.2375 4.46056C10.4523 4.43297 10.6702 4.47676 10.8577 4.58517C11.0452 4.69359 11.1918 4.86063 11.275 5.06056L13.7875 10.9231C13.8528 11.0735 13.8802 11.2377 13.8671 11.4012C13.854 11.5647 13.8009 11.7224 13.7125 11.8606L11.625 15.0356C11.5321 15.1792 11.4775 15.3442 11.4666 15.5149C11.4556 15.6856 11.4887 15.8563 11.5625 16.0106V16.0106Z" stroke="white" stroke-width="2" stroke-linecap="round" stroke-linejoin="round"/>
</svg>
