<svg width="38" height="39" viewBox="0 0 38 39" fill="none" xmlns="http://www.w3.org/2000/svg">
<path d="M19 0.5C8.52351 0.5 0 9.02351 0 19.5C0 29.9765 8.52351 38.5 19 38.5C29.4765 38.5 38 29.9765 38 19.5C38 9.02351 29.4765 0.5 19 0.5ZM14.4126 11.1711C15.57 9.94428 17.1987 9.26923 19 9.26923C20.8013 9.26923 22.4154 9.94885 23.5774 11.182C24.7548 12.4316 25.3275 14.1106 25.1924 15.9156C24.922 19.5 22.145 22.4231 19 22.4231C15.855 22.4231 13.0725 19.5 12.8076 15.9147C12.6734 14.095 13.2452 12.4106 14.4126 11.1711ZM19 35.5769C16.8538 35.5783 14.7291 35.1488 12.7521 34.3137C10.775 33.4786 8.98572 32.255 7.49038 30.7155C8.34681 29.4941 9.43802 28.4557 10.7003 27.6609C13.0287 26.1683 15.9755 25.3462 19 25.3462C22.0245 25.3462 24.9713 26.1683 27.297 27.6609C28.5603 28.4554 29.6525 29.4938 30.5096 30.7155C29.0144 32.2552 27.2252 33.4789 25.2481 34.314C23.2709 35.1491 21.1462 35.5785 19 35.5769Z" fill="white"/>
</svg>
