<svg width="50" height="50" viewBox="0 0 50 50" fill="none" xmlns="http://www.w3.org/2000/svg">
<path d="M25 17.1875C25 12.8906 28.6132 9.31638 32.9101 9.37498C34.4149 9.39235 35.8826 9.84396 37.1369 10.6755C38.3912 11.5071 39.3786 12.6832 39.9804 14.0625H46.875L40.5664 20.3711C40.1592 26.7081 37.354 32.6523 32.721 36.995C28.088 41.3378 21.9751 43.7531 15.625 43.75C9.37496 43.75 7.81246 41.4062 7.81246 41.4062C7.81246 41.4062 14.0625 39.0625 17.1875 34.375C17.1875 34.375 4.68746 28.125 7.81246 10.9375C7.81246 10.9375 15.625 18.75 25 20.3125V17.1875Z" stroke="black" stroke-width="2" stroke-linecap="round" stroke-linejoin="round"/>
</svg>
